<svg xmlns="http://www.w3.org/2000/svg" viewBox="0 0 64 64">
  <circle cx="32" cy="32" r="30" fill="#0A1614"/>
  <g transform="translate(32 32)">
    <g><path d="M 0 -22 L 7 -7 L 0 0 Z" fill="#DC2626"/><path d="M 0 -22 L -7 -7 L 0 0 Z" fill="#F4B942"/></g>
    <g transform="rotate(45)"><path d="M 0 -22 L 7 -7 L 0 0 Z" fill="#1B5E45"/><path d="M 0 -22 L -7 -7 L 0 0 Z" fill="#F8F5EE"/></g>
    <g transform="rotate(90)"><path d="M 0 -22 L 7 -7 L 0 0 Z" fill="#DC2626"/><path d="M 0 -22 L -7 -7 L 0 0 Z" fill="#F4B942"/></g>
    <g transform="rotate(135)"><path d="M 0 -22 L 7 -7 L 0 0 Z" fill="#1B5E45"/><path d="M 0 -22 L -7 -7 L 0 0 Z" fill="#F8F5EE"/></g>
    <g transform="rotate(180)"><path d="M 0 -22 L 7 -7 L 0 0 Z" fill="#DC2626"/><path d="M 0 -22 L -7 -7 L 0 0 Z" fill="#F4B942"/></g>
    <g transform="rotate(225)"><path d="M 0 -22 L 7 -7 L 0 0 Z" fill="#1B5E45"/><path d="M 0 -22 L -7 -7 L 0 0 Z" fill="#F8F5EE"/></g>
    <g transform="rotate(270)"><path d="M 0 -22 L 7 -7 L 0 0 Z" fill="#DC2626"/><path d="M 0 -22 L -7 -7 L 0 0 Z" fill="#F4B942"/></g>
    <g transform="rotate(315)"><path d="M 0 -22 L 7 -7 L 0 0 Z" fill="#1B5E45"/><path d="M 0 -22 L -7 -7 L 0 0 Z" fill="#F8F5EE"/></g>
  </g>
  <circle cx="32" cy="32" r="9" fill="#0A1614" stroke="#F8F5EE" stroke-width="1"/>
</svg>
